<?xml version="1.0" encoding="UTF-8"?>
<svg width="700pt" height="700pt" version="1.1" viewBox="0 0 700 700" xmlns="http://www.w3.org/2000/svg" xmlns:xlink="http://www.w3.org/1999/xlink">
 <defs>
  <symbol id="w" overflow="visible">
   <path d="m2.3594-0.14062c-0.11719 0.0625-0.24219 0.10938-0.375 0.14062-0.13672 0.03125-0.27344 0.046875-0.40625 0.046875-0.4375 0-0.78125-0.11719-1.0312-0.35938-0.25-0.23828-0.375-0.5625-0.375-0.96875 0-0.41406 0.125-0.74219 0.375-0.98438 0.25-0.23828 0.59375-0.35938 1.0312-0.35938 0.13281 0 0.26953 0.015625 0.40625 0.046875 0.13281 0.03125 0.25781 0.085937 0.375 0.15625v0.53125c-0.11719-0.082031-0.23438-0.14453-0.35938-0.1875-0.11719-0.039063-0.24219-0.0625-0.375-0.0625-0.24219 0-0.42969 0.078125-0.5625 0.23438-0.13672 0.14844-0.20312 0.35547-0.20312 0.625 0 0.26172 0.066406 0.46875 0.20312 0.625 0.13281 0.14844 0.32031 0.21875 0.5625 0.21875 0.13281 0 0.25781-0.015625 0.375-0.046875 0.125-0.039063 0.24219-0.10156 0.35938-0.1875z"/>
  </symbol>
  <symbol id="b" overflow="visible">
   <path d="m1.7344-1.4062c-0.054687-0.019531-0.10938-0.035156-0.17188-0.046875-0.054688-0.019531-0.10547-0.03125-0.15625-0.03125-0.15625 0-0.28125 0.054687-0.375 0.15625-0.085938 0.10547-0.125 0.25-0.125 0.4375v0.89062h-0.60938v-1.9375h0.60938v0.32812c0.082031-0.125 0.17578-0.21875 0.28125-0.28125 0.10156-0.0625 0.22656-0.09375 0.375-0.09375 0.019531 0 0.039062 0.007813 0.0625 0.015625h0.10938z"/>
  </symbol>
  <symbol id="a" overflow="visible">
   <path d="m2.2188-0.96875v0.17188h-1.4375c0.007812 0.14844 0.0625 0.25781 0.15625 0.32812 0.09375 0.074219 0.21875 0.10938 0.375 0.10938 0.13281 0 0.26953-0.015625 0.40625-0.046875 0.13281-0.039062 0.27344-0.10156 0.42188-0.1875v0.46875c-0.15625 0.0625-0.30859 0.10547-0.45312 0.125-0.14844 0.03125-0.29297 0.046875-0.4375 0.046875-0.34375 0-0.61719-0.085938-0.8125-0.26562-0.1875-0.17578-0.28125-0.42578-0.28125-0.75 0-0.3125 0.09375-0.55469 0.28125-0.73438 0.1875-0.1875 0.44531-0.28125 0.78125-0.28125 0.30078 0 0.53906 0.09375 0.71875 0.28125 0.1875 0.1875 0.28125 0.43359 0.28125 0.73438zm-0.625-0.20312c0-0.125-0.039062-0.21875-0.10938-0.28125-0.0625-0.070313-0.15234-0.10938-0.26562-0.10938-0.11719 0-0.21484 0.039062-0.29688 0.10938-0.074219 0.0625-0.12109 0.15625-0.14062 0.28125z"/>
  </symbol>
  <symbol id="e" overflow="visible">
   <path d="m1.1562-0.875c-0.125 0-0.21875 0.027344-0.28125 0.078125-0.0625 0.042969-0.09375 0.10547-0.09375 0.1875 0 0.074219 0.023438 0.13672 0.078125 0.1875 0.050781 0.042969 0.125 0.0625 0.21875 0.0625 0.11328 0 0.20703-0.039063 0.28125-0.125 0.082031-0.082031 0.125-0.1875 0.125-0.3125v-0.078125zm0.95312-0.23438v1.1094h-0.625v-0.28125c-0.085937 0.11719-0.17969 0.19922-0.28125 0.25-0.10547 0.050781-0.23047 0.078125-0.375 0.078125-0.19922 0-0.35938-0.054688-0.48438-0.17188-0.125-0.11328-0.1875-0.26562-0.1875-0.45312 0-0.22656 0.078125-0.39453 0.23438-0.5 0.15625-0.10156 0.39844-0.15625 0.73438-0.15625h0.35938v-0.046875c0-0.10156-0.042969-0.17578-0.125-0.21875-0.074219-0.039062-0.19531-0.0625-0.35938-0.0625-0.125 0-0.24609 0.015625-0.35938 0.046875-0.11719 0.023437-0.21875 0.058594-0.3125 0.10938v-0.46875c0.125-0.03125 0.25391-0.054688 0.39062-0.078125 0.13281-0.019531 0.26953-0.03125 0.40625-0.03125 0.34375 0 0.59375 0.074219 0.75 0.21875 0.15625 0.13672 0.23438 0.35547 0.23438 0.65625z"/>
  </symbol>
  <symbol id="c" overflow="visible">
   <path d="m0.96875-2.4844v0.54688h0.64062v0.45312h-0.64062v0.8125c0 0.09375 0.015625 0.15625 0.046875 0.1875 0.039063 0.03125 0.11328 0.046875 0.21875 0.046875h0.3125v0.4375h-0.51562c-0.25 0-0.42969-0.050781-0.53125-0.15625-0.09375-0.10156-0.14062-0.27344-0.14062-0.51562v-0.8125h-0.3125v-0.45312h0.3125v-0.54688z"/>
  </symbol>
  <symbol id="j" overflow="visible">
   <path d="m1.6094-1.6406v-1.0469h0.625v2.6875h-0.625v-0.28125c-0.085937 0.11719-0.17969 0.19922-0.28125 0.25-0.10547 0.050781-0.22656 0.078125-0.35938 0.078125-0.23047 0-0.42188-0.09375-0.57812-0.28125s-0.23438-0.42969-0.23438-0.73438c0-0.28906 0.078125-0.53125 0.23438-0.71875 0.15625-0.19531 0.34766-0.29688 0.57812-0.29688 0.13281 0 0.25391 0.03125 0.35938 0.09375 0.10156 0.054687 0.19531 0.13672 0.28125 0.25zm-0.40625 1.25c0.13281 0 0.23438-0.046875 0.29688-0.14062 0.070312-0.10156 0.10938-0.25 0.10938-0.4375 0-0.17578-0.039063-0.3125-0.10938-0.40625-0.0625-0.10156-0.16406-0.15625-0.29688-0.15625-0.13672 0-0.24219 0.054688-0.3125 0.15625-0.0625 0.09375-0.09375 0.23047-0.09375 0.40625 0 0.1875 0.03125 0.33594 0.09375 0.4375 0.070313 0.09375 0.17578 0.14062 0.3125 0.14062z"/>
  </symbol>
  <symbol id="i" overflow="visible">
   <path d="m1.3281-0.39062c0.125 0 0.22266-0.046875 0.29688-0.14062 0.070312-0.10156 0.10938-0.25 0.10938-0.4375 0-0.17578-0.039063-0.3125-0.10938-0.40625-0.074219-0.10156-0.17188-0.15625-0.29688-0.15625-0.13672 0-0.24219 0.054688-0.3125 0.15625-0.074219 0.09375-0.10938 0.23047-0.10938 0.40625 0 0.1875 0.035156 0.33594 0.10938 0.4375 0.070313 0.09375 0.17578 0.14062 0.3125 0.14062zm-0.42188-1.25c0.09375-0.11328 0.19141-0.19531 0.29688-0.25 0.10156-0.0625 0.21875-0.09375 0.34375-0.09375 0.23828 0 0.4375 0.10156 0.59375 0.29688 0.15625 0.1875 0.23438 0.42969 0.23438 0.71875 0 0.30469-0.078125 0.54688-0.23438 0.73438s-0.35547 0.28125-0.59375 0.28125c-0.125 0-0.24219-0.027344-0.34375-0.078125-0.10547-0.050781-0.20312-0.13281-0.29688-0.25v0.28125h-0.60938v-2.6875h0.60938z"/>
  </symbol>
  <symbol id="h" overflow="visible">
   <path d="m0.046875-1.9375h0.60938l0.51562 1.3125 0.45312-1.3125h0.60938l-0.8125 2.125c-0.085937 0.20703-0.17969 0.35156-0.28125 0.4375-0.10547 0.09375-0.25 0.14062-0.4375 0.14062h-0.34375v-0.40625h0.1875c0.10156 0 0.17578-0.023437 0.21875-0.0625 0.050781-0.03125 0.09375-0.089844 0.125-0.17188l0.015625-0.046875z"/>
  </symbol>
  <symbol id="g" overflow="visible">
   <path d="m0.32812-2.5781h1.7812v0.5h-1.125v0.48438h1.0625v0.5h-1.0625v0.59375h1.1719v0.5h-1.8281z"/>
  </symbol>
  <symbol id="v" overflow="visible">
   <path d="m0.29688-1.9375h0.60938v1.9375h-0.60938zm0-0.75h0.60938v0.51562h-0.60938z"/>
  </symbol>
  <symbol id="u" overflow="visible">
   <path d="m0.29688-2.6875h0.60938v1.4688l0.71875-0.71875h0.71875l-0.95312 0.89062 1.0312 1.0469h-0.75l-0.76562-0.8125v0.8125h-0.60938z"/>
  </symbol>
  <symbol id="t" overflow="visible">
   <path d="m0.98438-2.0781v1.5781h0.23438c0.28125 0 0.48828-0.066406 0.625-0.20312 0.14453-0.13281 0.21875-0.33203 0.21875-0.59375 0-0.25-0.074219-0.44141-0.21875-0.57812-0.13672-0.13281-0.34375-0.20312-0.625-0.20312zm-0.65625-0.5h0.70312c0.38281 0 0.67188 0.03125 0.85938 0.09375 0.19531 0.054687 0.36328 0.14844 0.5 0.28125 0.125 0.11719 0.21094 0.25 0.26562 0.40625 0.0625 0.14844 0.09375 0.3125 0.09375 0.5 0 0.19922-0.03125 0.375-0.09375 0.53125-0.054688 0.14844-0.14062 0.27734-0.26562 0.39062-0.13672 0.13672-0.30469 0.23438-0.5 0.29688-0.1875 0.054688-0.47656 0.078125-0.85938 0.078125h-0.70312z"/>
  </symbol>
  <symbol id="d" overflow="visible">
   <path d="m1.2188-1.5312c-0.13672 0-0.24219 0.054688-0.3125 0.15625-0.074219 0.09375-0.10938 0.23047-0.10938 0.40625 0 0.1875 0.035156 0.33594 0.10938 0.4375 0.070312 0.09375 0.17578 0.14062 0.3125 0.14062 0.13281 0 0.23438-0.046875 0.29688-0.14062 0.070313-0.10156 0.10938-0.25 0.10938-0.4375 0-0.17578-0.039062-0.3125-0.10938-0.40625-0.0625-0.10156-0.16406-0.15625-0.29688-0.15625zm0-0.45312c0.33203 0 0.59375 0.09375 0.78125 0.28125 0.1875 0.17969 0.28125 0.42188 0.28125 0.73438 0 0.32422-0.09375 0.57422-0.28125 0.75-0.1875 0.17969-0.44922 0.26562-0.78125 0.26562-0.33594 0-0.59375-0.085938-0.78125-0.26562-0.1875-0.17578-0.28125-0.42578-0.28125-0.75 0-0.3125 0.09375-0.55469 0.28125-0.73438 0.1875-0.1875 0.44531-0.28125 0.78125-0.28125z"/>
  </symbol>
  <symbol id="f" overflow="visible">
   <path d="m1.5625-2.6875v0.40625h-0.34375c-0.085938 0-0.14844 0.015625-0.1875 0.046875-0.03125 0.03125-0.046875 0.089844-0.046875 0.17188v0.125h0.53125v0.45312h-0.53125v1.4844h-0.60938v-1.4844h-0.3125v-0.45312h0.3125v-0.125c0-0.20703 0.054688-0.36328 0.17188-0.46875 0.11328-0.10156 0.29688-0.15625 0.54688-0.15625z"/>
  </symbol>
  <symbol id="s" overflow="visible">
   <path d="m0.29688-2.6875h0.60938v2.6875h-0.60938z"/>
  </symbol>
  <symbol id="r" overflow="visible">
   <path d="m2.0938-1.6094c0.070312-0.125 0.16016-0.21875 0.26562-0.28125 0.11328-0.0625 0.23438-0.09375 0.35938-0.09375 0.21875 0 0.38281 0.074219 0.5 0.21875 0.125 0.13672 0.1875 0.33594 0.1875 0.59375v1.1719h-0.625v-1-0.046875-0.078125c0-0.13281-0.023438-0.23438-0.0625-0.29688-0.042969-0.0625-0.10547-0.09375-0.1875-0.09375-0.11719 0-0.21094 0.054687-0.28125 0.15625-0.0625 0.09375-0.09375 0.23047-0.09375 0.40625v0.95312h-0.625v-1c0-0.21875-0.023438-0.35938-0.0625-0.42188-0.03125-0.0625-0.09375-0.09375-0.1875-0.09375-0.11719 0-0.21094 0.054687-0.28125 0.15625-0.0625 0.09375-0.09375 0.23047-0.09375 0.40625v0.95312h-0.60938v-1.9375h0.60938v0.29688c0.082031-0.11328 0.17188-0.19531 0.26562-0.25 0.10156-0.0625 0.21094-0.09375 0.32812-0.09375 0.13281 0 0.25 0.039063 0.34375 0.10938 0.10156 0.0625 0.1875 0.15234 0.25 0.26562z"/>
  </symbol>
  <symbol id="q" overflow="visible">
   <path d="m2.2344-1.1719v1.1719h-0.60938v-0.89062c0-0.17578-0.007812-0.29688-0.015625-0.35938-0.011719-0.0625-0.027344-0.10938-0.046875-0.14062-0.023438-0.03125-0.054688-0.054687-0.09375-0.078125-0.042969-0.03125-0.089844-0.046875-0.14062-0.046875-0.125 0-0.23047 0.054687-0.3125 0.15625-0.074219 0.09375-0.10938 0.23047-0.10938 0.40625v0.95312h-0.60938v-2.6875h0.60938v1.0469c0.09375-0.11328 0.19141-0.19531 0.29688-0.25 0.11328-0.0625 0.23438-0.09375 0.35938-0.09375 0.21875 0 0.38281 0.074219 0.5 0.21875 0.11328 0.13672 0.17188 0.33594 0.17188 0.59375z"/>
  </symbol>
  <symbol id="p" overflow="visible">
   <path d="m0.32812-2.5781h0.73438l0.9375 1.7656v-1.7656h0.625v2.5781h-0.73438l-0.9375-1.7656v1.7656h-0.625z"/>
  </symbol>
  <symbol id="o" overflow="visible">
   <path d="m0.28125-0.75v-1.1875h0.60938v0.20312 0.39062 0.3125c0 0.15625 0.003906 0.27344 0.015625 0.34375 0.007812 0.0625 0.023438 0.10938 0.046875 0.14062 0.019531 0.042969 0.050781 0.074219 0.09375 0.09375 0.039063 0.023437 0.085937 0.03125 0.14062 0.03125 0.125 0 0.22266-0.046875 0.29688-0.14062 0.070313-0.10156 0.10938-0.24219 0.10938-0.42188v-0.95312h0.625v1.9375h-0.625v-0.28125c-0.09375 0.11719-0.19531 0.19922-0.29688 0.25-0.10547 0.050781-0.21875 0.078125-0.34375 0.078125-0.21875 0-0.38672-0.066406-0.5-0.20312-0.11719-0.13281-0.17188-0.33203-0.17188-0.59375z"/>
  </symbol>
  <symbol id="n" overflow="visible">
   <path d="m2.2344-1.1719v1.1719h-0.60938v-0.90625c0-0.16406-0.007812-0.28125-0.015625-0.34375-0.011719-0.0625-0.027344-0.10938-0.046875-0.14062-0.023438-0.03125-0.054688-0.054687-0.09375-0.078125-0.042969-0.03125-0.089844-0.046875-0.14062-0.046875-0.125 0-0.23047 0.054687-0.3125 0.15625-0.074219 0.09375-0.10938 0.23047-0.10938 0.40625v0.95312h-0.60938v-1.9375h0.60938v0.29688c0.09375-0.11328 0.19141-0.19531 0.29688-0.25 0.11328-0.0625 0.23438-0.09375 0.35938-0.09375 0.21875 0 0.38281 0.074219 0.5 0.21875 0.11328 0.13672 0.17188 0.33594 0.17188 0.59375z"/>
  </symbol>
  <symbol id="m" overflow="visible">
   <path d="m0.32812-2.5781h1.0938c0.33203 0 0.58203 0.074219 0.75 0.21875 0.17578 0.14844 0.26562 0.35547 0.26562 0.625 0 0.27344-0.089844 0.48047-0.26562 0.625-0.16797 0.14844-0.41797 0.21875-0.75 0.21875h-0.4375v0.89062h-0.65625zm0.65625 0.48438v0.71875h0.375c0.125 0 0.22266-0.03125 0.29688-0.09375 0.070312-0.0625 0.10938-0.14844 0.10938-0.26562 0-0.11328-0.039063-0.20312-0.10938-0.26562-0.074219-0.0625-0.17188-0.09375-0.29688-0.09375z"/>
  </symbol>
  <symbol id="l" overflow="visible">
   <path d="m0.29688-1.9375h0.60938v1.9062c0 0.25781-0.0625 0.45703-0.1875 0.59375-0.11719 0.13281-0.29297 0.20312-0.53125 0.20312h-0.3125v-0.40625h0.10938c0.125 0 0.20703-0.027344 0.25-0.078125 0.039063-0.054688 0.0625-0.15625 0.0625-0.3125zm0-0.75h0.60938v0.51562h-0.60938z"/>
  </symbol>
  <symbol id="k" overflow="visible">
   <path d="m1.8594-1.875v0.5c-0.085937-0.050781-0.16797-0.085938-0.25-0.10938-0.085937-0.03125-0.17188-0.046875-0.26562-0.046875-0.17969 0-0.3125 0.054688-0.40625 0.15625-0.09375 0.09375-0.14062 0.23047-0.14062 0.40625 0 0.1875 0.046875 0.33594 0.14062 0.4375 0.09375 0.09375 0.22656 0.14062 0.40625 0.14062 0.09375 0 0.17969-0.015625 0.26562-0.046875 0.09375-0.03125 0.17578-0.070312 0.25-0.125v0.5c-0.09375 0.042969-0.19531 0.066406-0.29688 0.078125-0.10547 0.019531-0.20312 0.03125-0.29688 0.03125-0.35547 0-0.63281-0.085938-0.82812-0.26562-0.1875-0.17578-0.28125-0.42578-0.28125-0.75 0-0.3125 0.09375-0.55469 0.28125-0.73438 0.19531-0.1875 0.47266-0.28125 0.82812-0.28125 0.10156 0 0.20312 0.011719 0.29688 0.03125 0.09375 0.023437 0.19141 0.046875 0.29688 0.078125z"/>
  </symbol>
 </defs>
 <path transform="matrix(.70707 0 0 .70707 133.64 0)" d="m140.3 293.8c8.7012-29.7 19.899-62.002 33.7-94.602 3.7014-8.7012 10.701-17.8 20.098-17.701 6.9996 0.099442 12.701 5.5025 17.297 10.701 20.198 22.601 36.401 48.699 47.798 76.902" fill="none" stroke="#000" stroke-linecap="round" stroke-linejoin="round" stroke-miterlimit="10" stroke-width="8"/>
 <path transform="matrix(.70707 0 0 .70707 133.64 0)" d="m338.9 269c1.5027-35.998 11.602-71.499 29.302-102.9 3.9998-7.0991 9.5022-14.8 17.701-15.402 7.8007-0.70162 14.403 5.5025 19.502 11.403 23.198 27.197 38.699 61.002 43.998 96.298" fill="none" stroke="#000" stroke-linecap="round" stroke-linejoin="round" stroke-miterlimit="10" stroke-width="8"/>
 <path transform="matrix(.70707 0 0 .70707 133.64 0)" d="m236.3 224c-0.80106-8.2979 4.8008-19.8 11.999-23.999 7.1985-4.1987 8.7012-5.0992 16.999-5.7013 6.7013-0.50273 14.403 1.9004 20.701 3.9998s12.099 7.0991 13.502 13.601c-0.60218-9.5022 9.8006-23.198 11.8-24.899 3.8009-3.2982 11.8-8.1984 22.198-8.8006 7.1985-0.29833 19.8 0.9005 23.501 7.0991" fill="none" stroke="#000" stroke-linecap="round" stroke-linejoin="round" stroke-miterlimit="10" stroke-width="8"/>
 <path transform="matrix(.70707 0 0 .70707 133.64 0)" d="m151.6 248.1c-17.999-5.9002-37.799 2.5026-48.102 18.297-10.298 15.8-8.5023 38.6 4.1987 52.599-22.198-6.9002-49.202 7.1985-54.599 29.799-5.3975 22.601 12.198 56.798 35.501 56.201-18.297 5.1986-37.401 3.9998-44.103 21.8-4.3975 11.8-0.70162 25.999 8.099 34.998 8.8006 9.0989 22.098 13.198 34.6 11.999-16.8 15.601-25.302 40.998-17.502 62.599 7.8007 21.601 42.202 29.098 63.903 21.502-13.502 7.5023-17.999 37.501-11.999 57.002 4.1987 13.8 24.999 21.402 38.998 17.999 13.999-3.3976 29.302-9.2978 31.203-23.601-2.3977 13.298 2.0993 26.998 8.8006 38.699 10.198 17.9 27.402 33.302 47.898 34.998 20.502 1.7016 42.6-15.198 40.799-35.799 11.9 19.297 34.203 32.899 56.798 30.799 22.601-2.0993 43.103-22.402 42.103-45.102 13.298 17.701 39.799 23.899 59.499 13.8s30.302-35.202 23.7-56.301c13.9 8.6017 31.799 11.198 47.102 5.298 15.297-5.9002 27.098-20.8 27.7-37.202 0.60218-16.402-5.0992-42.5-21.198-45.699 19.402-9.5022 30.098-16.502 35.401-37.401 5.298-20.899-5.7013-38.202-24.899-48.102 0 0 32.998-0.29833 32.998-38.998 0-31.203-26.197-28.7-40.501-32.998 19.198-3.602 29.302-41.699 19.502-58.599s-31.7-23.899-51.003-20.999c5.0992-17.701 0.39777-37.799-11.8-51.5-12.298-13.701-31.799-20.502-49.898-17.402" fill="none" stroke="#000" stroke-linecap="round" stroke-linejoin="round" stroke-miterlimit="10" stroke-width="8"/>
 <path transform="matrix(.70707 0 0 .70707 133.64 0)" d="m240.2 466c0 9.5962-14.403 9.5962-14.403 0 0-9.6017 14.403-9.6017 14.403 0" stroke="#000" stroke-linecap="round" stroke-linejoin="round" stroke-miterlimit="10" stroke-width="3"/>
 <path transform="matrix(.70707 0 0 .70707 133.64 0)" d="m391.2 437c0 9.6017-14.397 9.6017-14.397 0 0-9.5961 14.397-9.5961 14.397 0" stroke="#000" stroke-linecap="round" stroke-linejoin="round" stroke-miterlimit="10" stroke-width="3"/>
 <path transform="matrix(.70707 0 0 .70707 133.64 0)" d="m180 278.2c0.39777 0-7.0991 0.50274-6.7013 0.50274 15.502 0.29832 38.6-4.0992 53.102-9.3973 9.9-3.602 4.9997-4.7014 6.3974-5.0992s-5.9997-16.297-8.9001-21.502c-3.2982-6.1986-13.198-21.303-16.099-25.501-1.9999-2.8009-8.8006-9.5022-10.801-10.298-5.1986-2.2982-9.1984 7.3974-12.099 12.198-2.9998 4.8008-12.502 28.998-13.999 34.401-1.9004 6.9996-4.602 13.099-5.7013 17.502-1.1988 4.7014-0.50274 7.7012 4.7014 7.8007zm0 0" fill="none" stroke="#000" stroke-linecap="round" stroke-linejoin="round" stroke-miterlimit="10" stroke-width="8"/>
 <path transform="matrix(.70707 0 0 .70707 133.64 0)" d="m357.6 248.9c0.9005-4.0992 2.2982-13.198 7.5023-29.7 0.99994-3.2982 5.6019-16.502 10.198-25.7 1.2983-2.5026 9.3973-17.198 11.8-18.899 3.5026-2.6021 22.899 29.197 24.899 33.098 3.9003 7.7012 7.5023 14.502 12.8 28.501 0.80106 1.9999 1.9999 5.9997 1.3977 7.2979-0.39777 0.99994-12.099 6.0991-19.402 7.9001-11.9 2.9004-13.701 2.8009-22.402 3.0993-5.5908 0.30385-27.092-0.093918-26.794-5.5964" fill="none" stroke="#000" stroke-linecap="round" stroke-linejoin="round" stroke-miterlimit="10" stroke-width="8"/>
 <path transform="matrix(.70707 0 0 .70707 133.64 0)" d="m295.1 532.2c8.6017-14.502 9.1984-17.601 17.8-32.098 2.3977-4.0992 5.298-8.1984 7.3974-12.8 6.6018 5.8008 10.099 9.2978 11.198 10.502 12.602 13.999 10.198 10.701 22.8 24.7" fill="none" stroke="#000" stroke-linecap="round" stroke-linejoin="round" stroke-miterlimit="10" stroke-width="8"/>
 <path transform="matrix(.70707 0 0 .70707 133.64 0)" d="m186.1 499.3c-11.403 0.19888-22.8 2.7015-33.203 7.3974" fill="none" stroke="#000" stroke-linecap="round" stroke-linejoin="round" stroke-miterlimit="10" stroke-width="8"/>
 <path transform="matrix(.70707 0 0 .70707 133.64 0)" d="m199.4 527.8c-11.8 5.8008-21.198 16.402-25.501 28.799" fill="none" stroke="#000" stroke-linecap="round" stroke-linejoin="round" stroke-miterlimit="10" stroke-width="8"/>
 <path transform="matrix(.70707 0 0 .70707 133.64 0)" d="m433.9 446.2c13.403-7.6018 29.601-10.198 44.699-6.9002" fill="none" stroke="#000" stroke-linecap="round" stroke-linejoin="round" stroke-miterlimit="10" stroke-width="8"/>
 <path transform="matrix(.70707 0 0 .70707 133.64 0)" d="m439.6 464.7c14.198-0.60218 28.501 5.9002 37.302 16.999" fill="none" stroke="#000" stroke-linecap="round" stroke-linejoin="round" stroke-miterlimit="10" stroke-width="8"/>
 <path transform="matrix(.70707 0 0 .70707 133.64 0)" d="m466.5 208.2c-7.3974-19.402 4.1987-43.898 23.999-50.401-11.298-9.9-15.297-27.197-9.5022-41.103 5.8008-13.9 20.899-23.198 35.799-22.198-8.8006-12.502-3.8009-31.899 9.1984-39.799 12.999-7.9001 31.501-4.2981 41.6 7.1985 10.198 11.403 11.999 28.998 5.8008 42.998-6.193 14.005-19.391 24.104-34.092 28.103 14.8 8.5023 23.303 26.601 20.502 43.5-2.8009 16.9-14.403 29.302-31.098 32.501 8.099 27.8 10.198 52.301-14.701 67.101" fill="none" stroke="#000" stroke-linecap="round" stroke-linejoin="round" stroke-miterlimit="10" stroke-width="8"/>
 <g>
  <use x="133.636719" y="570.605469" xlink:href="#w"/>
  <use x="136.230469" y="570.605469" xlink:href="#b"/>
  <use x="137.972656" y="570.605469" xlink:href="#a"/>
  <use x="140.371094" y="570.605469" xlink:href="#e"/>
  <use x="142.757812" y="570.605469" xlink:href="#c"/>
  <use x="144.449219" y="570.605469" xlink:href="#a"/>
  <use x="146.84375" y="570.605469" xlink:href="#j"/>
  <use x="150.605469" y="570.605469" xlink:href="#i"/>
  <use x="153.136719" y="570.605469" xlink:href="#h"/>
  <use x="156.671875" y="570.605469" xlink:href="#g"/>
  <use x="159.089844" y="570.605469" xlink:href="#b"/>
  <use x="160.832031" y="570.605469" xlink:href="#v"/>
  <use x="162.042969" y="570.605469" xlink:href="#u"/>
  <use x="164.394531" y="570.605469" xlink:href="#e"/>
  <use x="168.011719" y="570.605469" xlink:href="#t"/>
  <use x="170.945312" y="570.605469" xlink:href="#d"/>
  <use x="173.375" y="570.605469" xlink:href="#b"/>
  <use x="175.117188" y="570.605469" xlink:href="#f"/>
  <use x="176.65625" y="570.605469" xlink:href="#a"/>
  <use x="179.054688" y="570.605469" xlink:href="#s"/>
  <use x="180.265625" y="570.605469" xlink:href="#c"/>
  <use x="133.636719" y="574.140625" xlink:href="#f"/>
  <use x="135.175781" y="574.140625" xlink:href="#b"/>
  <use x="136.917969" y="574.140625" xlink:href="#d"/>
  <use x="139.347656" y="574.140625" xlink:href="#r"/>
  <use x="144.261719" y="574.140625" xlink:href="#c"/>
  <use x="145.953125" y="574.140625" xlink:href="#q"/>
  <use x="148.46875" y="574.140625" xlink:href="#a"/>
  <use x="152.097656" y="574.140625" xlink:href="#p"/>
  <use x="155.054688" y="574.140625" xlink:href="#d"/>
  <use x="157.484375" y="574.140625" xlink:href="#o"/>
  <use x="160" y="574.140625" xlink:href="#n"/>
  <use x="163.75" y="574.140625" xlink:href="#m"/>
  <use x="166.339844" y="574.140625" xlink:href="#b"/>
  <use x="168.082031" y="574.140625" xlink:href="#d"/>
  <use x="170.511719" y="574.140625" xlink:href="#l"/>
  <use x="171.722656" y="574.140625" xlink:href="#a"/>
  <use x="174.121094" y="574.140625" xlink:href="#k"/>
  <use x="176.21875" y="574.140625" xlink:href="#c"/>
 </g>
</svg>
